PathFileType	4	(X/Y/Z)
DataRate	CameraRate	NumFrames	NumMarkers	Units	OrigDataRate	OrigDataStartFrame	OrigNumFrames	
	120.0	120.0	10	39	mm	120.0	174	231
Frame#	Time	midhip	hip_r	hip_l	knee_r	knee_l	ankle_r	ankle_l	midasis	asis_r	asis_l	psis_r	psis_l	epicondLat_r	epicondLat_l	epicondMed_r	epicondMed_l	malleolusLat_r	malleolusLat_l	malleolusMedv_r	malleolusMedv_l	heel_r	heel_l	sternalnotch	xyphoidprocess	neck	subclavicle_r	subclavicle_l	toe_r	toe_l	thighwand_r	thighwand_l	upperleg1_r	upperleg1_l	upperleg2_r	upperleg2_l	shankwand_r	shankwand_l	lowerleg1_r	lowerleg1_l
	X1	Y1	Z1	X2	Y2	Z2	X3	Y3	Z3	X4	Y4	Z4	X5	Y5	Z5	X6	Y6	Z6	X7	Y7	Z7	X8	Y8	Z8	X9	Y9	Z9	X10	Y10	Z10	X11	Y11	Z11	X12	Y12	Z12	X13	Y13	Z13	X14	Y14	Z14	X15	Y15	Z15	X16	Y16	Z16	X17	Y17	Z17	X18	Y18	Z18	X19	Y19	Z19	X20	Y20	Z20	X21	Y21	Z21	X22	Y22	Z22	X23	Y23	Z23	X24	Y24	Z24	X25	Y25	Z25	X26	Y26	Z26	X27	Y27	Z27	X28	Y28	Z28	X29	Y29	Z29	X30	Y30	Z30	X31	Y31	Z31	X32	Y32	Z32	X33	Y33	Z33	X34	Y34	Z34	X35	Y35	Z35	X36	Y36	Z36	X37	Y37	Z37	X38	Y38	Z38	X39	Y39	Z39

	174	1.45000	1456.229	835.971	-248.048	1467.551	836.636	-190.417	1444.908	835.306	-305.678	1443.693	460.310	-166.647	1434.765	466.698	-340.661	1419.809	63.186	-170.630	1415.982	65.768	-357.935	1527.415	905.592	-256.762	1538.366	906.947	-156.478	1516.464	904.237	-357.046	1380.072	958.950	-215.706	1373.128	958.710	-270.247	1458.222	462.737	-113.656	1439.278	471.707	-394.742	1428.507	455.291	-216.480	1426.608	454.069	-286.706	1409.967	63.405	-133.410	1409.031	67.723	-395.752	1442.167	77.930	-197.962	1438.602	76.673	-335.073	1373.085	42.294	-165.932	1369.056	49.352	-345.431	1494.554	1301.340	-268.086	1574.075	1145.510	-258.205	1407.397	1346.041	-258.071	1511.448	1296.585	-208.318	1508.785	1289.124	-317.001	1533.096	41.062	-124.933	1531.581	38.974	-408.630	1591.397	624.616	-196.417	1569.735	629.169	-317.287	1525.470	680.288	-142.479	1499.053	676.348	-372.329	1513.376	595.932	-136.646	1496.896	588.249	-370.424	1411.029	185.685	-60.276	1362.074	187.674	-445.415	1415.329	192.662	-101.784	1381.930	191.655	-407.426
	175	1.45833	1456.280	835.940	-248.043	1467.617	836.602	-190.416	1444.944	835.278	-305.671	1443.748	460.318	-166.713	1434.742	466.675	-340.689	1419.856	63.186	-170.679	1415.979	65.753	-357.931	1527.505	905.519	-256.780	1538.482	906.874	-156.500	1516.527	904.164	-357.060	1380.188	958.966	-215.715	1373.217	958.739	-270.253	1458.273	462.735	-113.721	1439.328	471.685	-394.764	1428.395	455.286	-216.552	1426.496	453.953	-286.765	1410.012	63.407	-133.459	1409.078	67.702	-395.757	1442.159	77.843	-197.991	1438.636	76.656	-335.085	1373.096	42.341	-165.962	1369.117	49.313	-345.399	1494.688	1301.250	-268.058	1574.042	1145.335	-258.171	1407.580	1346.050	-258.028	1511.598	1296.489	-208.301	1508.889	1289.009	-316.969	1533.131	41.056	-124.968	1531.603	38.972	-408.642	1591.449	624.428	-196.343	1569.667	629.008	-317.281	1525.609	680.156	-142.462	1499.094	676.257	-372.332	1513.402	595.793	-136.649	1496.896	588.054	-370.429	1411.052	185.668	-60.317	1362.127	187.666	-445.428	1415.394	192.612	-101.844	1381.969	191.626	-407.418
	176	1.46667	1456.335	835.902	-248.043	1467.689	836.557	-190.419	1444.981	835.246	-305.668	1443.770	460.308	-166.787	1434.723	466.633	-340.709	1419.911	63.187	-170.728	1415.981	65.738	-357.920	1527.603	905.433	-256.803	1538.610	906.784	-156.530	1516.595	904.083	-357.076	1380.316	958.981	-215.718	1373.315	958.767	-270.255	1458.285	462.714	-113.791	1439.377	471.644	-394.779	1428.271	455.281	-216.837	1426.342	453.861	-286.787	1410.061	63.409	-133.511	1409.129	67.682	-395.756	1442.228	77.817	-198.040	1438.669	76.638	-335.082	1373.106	42.389	-165.994	1369.203	49.199	-345.344	1494.837	1301.150	-268.058	1574.011	1145.142	-258.199	1407.734	1346.076	-258.019	1511.759	1296.367	-208.311	1509.009	1288.894	-316.969	1533.169	41.050	-125.002	1531.624	38.966	-408.651	1591.491	624.205	-196.262	1569.587	628.830	-317.289	1525.689	680.009	-142.466	1499.121	676.146	-372.352	1513.349	595.583	-136.721	1496.867	587.866	-370.434	1411.065	185.651	-60.363	1362.144	187.659	-445.418	1415.440	192.588	-101.907	1381.991	191.629	-407.411
	177	1.47500	1456.398	835.860	-248.044	1467.775	836.508	-190.424	1445.022	835.212	-305.664	1443.752	460.284	-166.863	1434.722	466.581	-340.699	1419.966	63.191	-170.775	1415.998	65.727	-357.903	1527.708	905.345	-256.830	1538.753	906.688	-156.569	1516.663	904.002	-357.091	1380.456	958.993	-215.717	1373.424	958.788	-270.255	1458.252	462.677	-113.863	1439.408	471.588	-394.765	1428.144	455.266	-217.284	1426.273	453.797	-286.733	1410.106	63.415	-133.560	1409.169	67.670	-395.742	1442.295	77.784	-198.093	1438.705	76.616	-335.067	1373.116	42.430	-166.030	1369.293	49.051	-345.278	1495.049	1301.084	-268.097	1574.177	1145.046	-258.343	1407.854	1346.104	-258.007	1512.061	1296.299	-208.398	1509.141	1288.818	-317.004	1533.205	41.045	-125.032	1531.641	38.962	-408.657	1591.522	623.960	-196.171	1569.539	628.663	-317.330	1525.731	679.798	-142.453	1499.146	676.027	-372.398	1513.259	595.324	-136.832	1496.860	587.722	-370.435	1411.062	185.634	-60.412	1362.114	187.653	-445.376	1415.461	192.581	-101.978	1382.011	191.659	-407.396
	178	1.48333	1456.473	835.822	-248.046	1467.875	836.463	-190.431	1445.071	835.181	-305.661	1443.692	460.257	-166.940	1434.726	466.529	-340.659	1420.005	63.198	-170.818	1416.026	65.725	-357.876	1527.819	905.266	-256.863	1538.908	906.601	-156.618	1516.729	903.931	-357.108	1380.605	959.001	-215.712	1373.542	958.802	-270.253	1458.174	462.636	-113.934	1439.398	471.531	-394.727	1427.295	455.792	-218.718	1425.654	453.936	-286.540	1410.134	63.424	-133.606	1409.188	67.669	-395.714	1442.337	77.763	-198.136	1438.726	76.605	-335.052	1373.125	42.459	-166.066	1369.377	48.899	-345.210	1495.304	1301.075	-268.142	1574.501	1145.062	-258.561	1408.025	1346.123	-257.965	1512.523	1296.329	-208.569	1509.230	1288.786	-317.021	1533.232	41.043	-125.062	1531.657	38.958	-408.660	1591.545	623.711	-196.071	1569.560	628.530	-317.424	1525.767	679.562	-142.415	1499.149	675.937	-372.423	1512.764	594.903	-137.217	1496.551	587.524	-370.423	1411.041	185.620	-60.462	1362.034	187.646	-445.302	1415.459	192.571	-102.045	1381.999	191.674	-407.342
	179	1.49167	1456.562	835.792	-248.052	1467.994	836.426	-190.443	1445.129	835.157	-305.661	1443.592	460.236	-167.016	1434.717	466.485	-340.605	1420.014	63.212	-170.855	1416.052	65.731	-357.837	1527.932	905.206	-256.905	1539.073	906.533	-156.677	1516.791	903.879	-357.132	1380.760	959.002	-215.705	1373.666	958.806	-270.253	1458.055	462.599	-114.004	1439.339	471.480	-394.678	1426.450	456.309	-219.916	1424.706	454.039	-286.272	1410.131	63.439	-133.646	1409.179	67.678	-395.669	1442.320	77.765	-198.172	1438.712	76.600	-335.022	1373.130	42.474	-166.096	1369.426	48.783	-345.151	1495.459	1301.060	-268.165	1574.591	1145.011	-258.629	1408.259	1346.131	-257.925	1512.758	1296.329	-208.641	1509.312	1288.744	-317.032	1533.249	41.046	-125.092	1531.669	38.950	-408.657	1591.558	623.466	-195.957	1569.660	628.436	-317.582	1525.803	679.406	-142.406	1498.973	675.770	-372.315	1512.273	594.551	-137.540	1495.892	587.274	-370.391	1411.002	185.609	-60.510	1361.909	187.635	-445.197	1415.408	192.572	-102.105	1381.920	191.665	-407.256
	180	1.50000	1456.663	835.769	-248.062	1468.129	836.398	-190.460	1445.196	835.140	-305.664	1443.454	460.225	-167.086	1434.694	466.451	-340.543	1419.992	63.231	-170.885	1416.073	65.747	-357.786	1528.047	905.164	-256.954	1539.246	906.484	-156.746	1516.848	903.843	-357.163	1380.920	958.997	-215.697	1373.793	958.802	-270.255	1457.901	462.572	-114.069	1439.234	471.438	-394.624	1427.096	455.642	-218.791	1424.451	453.976	-286.086	1410.100	63.460	-133.678	1409.143	67.697	-395.607	1442.246	77.781	-198.208	1438.684	76.599	-334.973	1373.128	42.475	-166.118	1369.437	48.721	-345.106	1495.580	1301.040	-268.208	1574.628	1144.947	-258.686	1408.550	1346.093	-257.888	1512.906	1296.309	-208.678	1509.401	1288.708	-317.093	1533.253	41.051	-125.120	1531.666	38.945	-408.651	1591.562	623.227	-195.815	1569.824	628.370	-317.801	1525.833	679.298	-142.412	1498.795	675.613	-372.231	1512.638	594.615	-137.181	1495.521	587.177	-370.401	1410.951	185.599	-60.553	1361.747	187.615	-445.068	1415.335	192.556	-102.170	1381.811	191.633	-407.132
	181	1.50833	1456.769	835.751	-248.075	1468.272	836.377	-190.480	1445.266	835.126	-305.670	1443.288	460.221	-167.147	1434.652	466.426	-340.477	1419.947	63.253	-170.908	1416.090	65.769	-357.726	1528.159	905.134	-257.010	1539.420	906.450	-156.823	1516.899	903.819	-357.197	1381.080	958.983	-215.689	1373.921	958.792	-270.257	1457.722	462.552	-114.126	1439.088	471.404	-394.568	1426.982	455.543	-218.742	1425.141	454.022	-286.040	1410.048	63.482	-133.703	1409.089	67.722	-395.534	1442.153	77.796	-198.242	1438.652	76.608	-334.915	1373.115	42.466	-166.135	1369.443	48.680	-345.064	1495.770	1301.061	-268.295	1574.852	1144.980	-258.871	1408.875	1346.039	-257.860	1513.187	1296.340	-208.789	1509.519	1288.724	-317.200	1533.246	41.056	-125.141	1531.655	38.939	-408.643	1591.551	622.986	-195.631	1569.991	628.298	-318.063	1525.820	679.147	-142.403	1498.935	675.688	-372.402	1512.538	594.522	-137.121	1495.859	587.383	-370.508	1410.888	185.587	-60.588	1361.562	187.583	-444.924	1415.252	192.538	-102.230	1381.666	191.597	-406.969
	182	1.51667	1456.870	835.734	-248.092	1468.410	836.357	-190.504	1445.331	835.111	-305.680	1443.099	460.219	-167.196	1434.592	466.409	-340.413	1419.888	63.275	-170.927	1416.107	65.792	-357.662	1528.265	905.107	-257.071	1539.588	906.419	-156.904	1516.942	903.796	-357.238	1381.237	958.966	-215.680	1374.049	958.780	-270.258	1457.526	462.534	-114.172	1438.912	471.380	-394.513	1425.422	456.544	-220.791	1427.581	453.501	-286.456	1409.986	63.504	-133.722	1409.027	67.746	-395.455	1442.068	77.806	-198.263	1438.597	76.624	-334.851	1373.094	42.452	-166.146	1369.445	48.648	-345.019	1495.873	1301.062	-268.349	1574.901	1144.950	-258.982	1409.101	1346.011	-257.832	1513.265	1296.304	-208.802	1509.636	1288.746	-317.293	1533.233	41.061	-125.157	1531.648	38.930	-408.632	1591.519	622.730	-195.403	1570.126	628.200	-318.375	1525.751	678.940	-142.361	1499.060	675.775	-372.575	1511.560	594.069	-137.648	1496.979	587.921	-370.734	1410.818	185.572	-60.614	1361.367	187.538	-444.776	1415.135	192.553	-102.267	1381.436	191.580	-406.792
	183	1.52500	1456.962	835.715	-248.112	1468.538	836.335	-190.531	1445.385	835.094	-305.692	1442.897	460.212	-167.233	1434.510	466.397	-340.360	1419.829	63.293	-170.941	1416.123	65.810	-357.597	1528.363	905.075	-257.136	1539.749	906.384	-156.990	1516.977	903.766	-357.282	1381.390	958.950	-215.670	1374.175	958.767	-270.255	1457.319	462.513	-114.207	1438.722	471.361	-394.470	1424.700	456.818	-221.510	1424.458	454.570	-285.527	1409.927	63.521	-133.737	1408.969	67.764	-395.376	1442.000	77.802	-198.264	1438.559	76.638	-334.792	1373.063	42.440	-166.149	1369.441	48.622	-344.975	1495.993	1301.050	-268.387	1575.016	1144.928	-259.144	1409.278	1345.980	-257.789	1513.444	1296.275	-208.832	1509.706	1288.745	-317.375	1533.216	41.063	-125.167	1531.638	38.921	-408.621	1591.470	622.456	-195.136	1570.257	628.083	-318.767	1525.657	678.709	-142.285	1498.997	675.724	-372.635	1511.050	593.777	-137.761	1495.366	587.385	-370.649	1410.743	185.553	-60.631	1361.175	187.484	-444.634	1414.998	192.568	-102.278	1381.216	191.569	-406.627
